PathFileType	4	(X/Y/Z)	C:\Users\Basilio\Documents\Thesis Gigler\squatting_fais\c3dfiles\039\SLS_pre_front3\markers_experimental.trc
DataRate	CameraRate	NumFrames	NumMarkers	Units	OrigDataRate	OrigDataStartFrame	OrigNumFrames
200.000000	200.000000	4	63	mm	200.000000	1624	2166
Frame#	Time	FHD			LBHD			RBHD			C7			T10			CLAV			LSHO			LUUPA			LMUPA			LDUPA			LLEP			LMEP			LRAD			LUL			LRFIN			RSHO			RUPA1			RMUPA			RDUPA			RLEP			RMEP			RRAD			RUL			RUFIN			LASI			RASI			USACR			LSACR			RSACR			LTHI1			LTHI2			LTHI3			LTHI4			LLFC			LMFC			LTIB1			LTIB2			LTIB3			LTIB4			LLMAL			LMMAL			LHEE			LMT1			LMT2			LMT5			RTHI			RTHI2			RTHI3			RTHI4			RLFC			RMFC			RTIB1			RTIB2			RTIB3			RTIB4			RLMAL			RMMAL			RHEE			RMT1			RMT2			RMT5			*61			*62			
		X1	Y1	Z1	X2	Y2	Z2	X3	Y3	Z3	X4	Y4	Z4	X5	Y5	Z5	X6	Y6	Z6	X7	Y7	Z7	X8	Y8	Z8	X9	Y9	Z9	X10	Y10	Z10	X11	Y11	Z11	X12	Y12	Z12	X13	Y13	Z13	X14	Y14	Z14	X15	Y15	Z15	X16	Y16	Z16	X17	Y17	Z17	X18	Y18	Z18	X19	Y19	Z19	X20	Y20	Z20	X21	Y21	Z21	X22	Y22	Z22	X23	Y23	Z23	X24	Y24	Z24	X25	Y25	Z25	X26	Y26	Z26	X27	Y27	Z27	X28	Y28	Z28	X29	Y29	Z29	X30	Y30	Z30	X31	Y31	Z31	X32	Y32	Z32	X33	Y33	Z33	X34	Y34	Z34	X35	Y35	Z35	X36	Y36	Z36	X37	Y37	Z37	X38	Y38	Z38	X39	Y39	Z39	X40	Y40	Z40	X41	Y41	Z41	X42	Y42	Z42	X43	Y43	Z43	X44	Y44	Z44	X45	Y45	Z45	X46	Y46	Z46	X47	Y47	Z47	X48	Y48	Z48	X49	Y49	Z49	X50	Y50	Z50	X51	Y51	Z51	X52	Y52	Z52	X53	Y53	Z53	X54	Y54	Z54	X55	Y55	Z55	X56	Y56	Z56	X57	Y57	Z57	X58	Y58	Z58	X59	Y59	Z59	X60	Y60	Z60	X61	Y61	Z61	X62	Y62	Z62	X63	Y63	Z63	

1625	8.120000000000001	-406.5523071289064	1804.241088867188	-654.3995361328126	-567.9122314453126	1762.237060546875	-765.6515502929689	-533.6265869140626	1767.834716796875	-628.4246215820314	-589.0816040039064	1590.33447265625	-701.6900024414064	-573.9675292968751	1282.032592773438	-723.7444458007814	nan	nan	nan	-530.0079345703126	1611.182739257813	-860.047790527344	-365.1941833496094	1602.384765625	-973.3569335937502	-345.4674682617188	1635.654052734375	-940.051452636719	-298.0356750488282	1620.676025390625	-973.9433593750002	-233.7526550292969	1638.11962890625	-970.9009399414065	-216.9406127929688	1567.206909179688	-940.8825683593752	44.04824829101563	1702.027465820313	-907.5677490234377	36.18865966796876	1714.32421875	-982.9619750976565	120.0362548828125	1747.634155273438	-905.0280761718752	-460.516571044922	1604.183715820313	-541.5673217773439	-286.9609680175782	1559.19677734375	-453.4570312500001	-265.8160095214844	1596.908569335938	-480.3032836914064	-218.5704040527344	1564.8779296875	-460.7903747558595	-158.6531982421875	1586.453369140625	-474.7654418945314	-147.3479156494141	1521.745971679688	-516.6837158203126	112.9472885131836	1671.69384765625	-579.3060913085939	121.9606399536133	1662.421020507813	-504.1817321777345	195.4848327636719	1714.601806640625	-582.2770996093751	-395.6499328613282	1139.945556640625	-857.7984008789065	-388.2856750488282	1096.74072265625	-636.9468383789064	-578.5144653320314	1148.830932617188	-735.2422485351564	-579.7230834960939	1121.516357421875	-768.6242675781252	-576.2228393554689	1112.200561523438	-709.9159545898439	-291.7554931640626	923.534606933594	-952.4741821289065	-213.5074462890626	891.4241333007815	-943.6981201171877	-183.1719055175782	922.1724243164065	-923.947448730469	-197.8997802734376	831.751403808594	-943.3385009765627	-112.4569702148438	744.2368164062501	-946.2937622070315	-87.64556121826173	720.7363891601564	-831.4372558593752	22.82870674133301	657.9286499023439	-923.1580200195315	0.6257424354553224	595.7955932617189	-980.4070434570315	35.37137603759766	612.2459106445314	-957.2280883789065	79.62076568603517	542.9598388671876	-925.947692871094	136.8148498535157	382.0118713378907	-983.3116455078127	147.4096221923828	374.2944335937501	-897.064636230469	118.8171615600586	287.0234680175782	-958.6611328125002	300.8833312988282	426.1675720214845	-912.323669433594	294.6057128906251	434.3047180175782	-952.3464965820315	270.8300476074219	405.4497375488282	-1014.248718261719	-399.4039001464845	814.8159179687502	-602.0615844726564	-351.2223205566407	768.168151855469	-603.5367431640626	-320.1553039550782	777.6880493164065	-609.5366821289064	-364.3135375976563	685.7797851562501	-622.2678833007814	-375.1551208496094	547.0401611328126	-659.1715698242189	-336.0986938476563	550.9462890625001	-772.1268310546877	-319.1589965820313	340.3864135742188	-687.2905883789064	-398.7088623046876	268.6465454101563	-689.7580566406251	-352.1885070800782	262.8427429199219	-687.0025634765626	-328.6250915527344	219.0082702636719	-720.8688964843751	-387.9530639648439	119.682373046875	-709.0040893554689	-355.2937927246094	142.9183654785157	-790.563659667969	-453.2420959472657	103.4883193969727	-767.4930419921876	-229.1637573242188	60.17312622070314	-775.5153808593752	-232.9396972656251	60.0639114379883	-729.8458862304689	-289.2719421386719	39.74097061157227	-680.8634643554689	nan	nan	nan	nan	nan	nan	
1626	8.125	-407.238250732422	1804.459838867188	-654.2863159179689	-568.3818359375001	1762.342651367188	-765.6323852539064	-534.2932128906251	1768.073608398438	-628.2205810546876	-589.5170898437501	1590.371215820313	-701.5796508789064	-573.6846923828126	1282.070190429688	-723.6032714843751	nan	nan	nan	-530.3919067382814	1611.380737304688	-860.114196777344	-365.6486206054688	1602.50732421875	-973.4168090820315	-345.9156188964844	1635.86474609375	-940.1718750000002	-298.6386108398438	1620.921875	-974.0545043945315	-234.1668548583985	1638.437622070313	-971.0275878906252	-217.303451538086	1567.548095703125	-941.0050048828127	43.45288848876954	1702.982055664063	-907.8379516601565	35.6198844909668	1715.020751953125	-983.1394653320315	119.3365478515625	1748.823120117188	-905.4241333007815	-461.0528869628907	1604.345947265625	-541.5099487304689	-287.2555847167969	1559.613647460938	-453.3944091796876	-266.3948364257813	1596.934936523438	-480.4534301757814	-218.8725738525391	1565.226196289063	-460.8295898437501	-159.1314849853516	1586.93603515625	-474.7263183593751	-147.5935363769532	1522.159423828125	-516.6768188476564	112.1822738647461	1672.494995117188	-579.2187500000001	121.4692535400391	1662.761352539063	-504.5246582031251	195.0363464355469	1715.25537109375	-582.2968139648439	-395.2882690429689	1140.078735351563	-857.7738037109377	-387.7263183593751	1096.791381835938	-636.8517456054689	-578.0877075195314	1149.10791015625	-735.0714721679689	-579.3001708984376	1121.739868164063	-768.4216308593752	-575.7518310546876	1112.271240234375	-709.6009521484376	-291.7724304199219	923.4718017578127	-952.4993286132815	-213.6675567626954	891.112731933594	-943.7097778320315	-183.1130828857422	921.7830810546877	-923.830749511719	-198.0450592041016	831.5625610351565	-943.4755859375002	-113.0499114990235	743.6366577148439	-946.616149902344	-88.34220123291017	720.0211181640626	-831.6958007812502	22.07844924926758	657.0101928710939	-923.514099121094	-0.235381841659546	594.6514282226564	-980.5659790039065	34.2991065979004	611.4528808593751	-957.4975585937502	78.55615997314455	541.9979248046876	-926.131530761719	135.0408325195313	380.3647155761719	-983.901794433594	145.7846221923828	373.0887451171876	-897.5729980468752	116.8149108886719	285.8237609863282	-959.2781372070315	299.4477233886719	424.4483947753907	-912.7346191406252	293.5674438476563	433.1125793457032	-952.6835937500002	269.2635192871094	403.6270446777345	-1014.781311035156	-399.2945251464845	814.8440551757815	-602.0101928710939	-351.1756591796876	768.2612915039065	-603.7216796875001	-320.1583251953126	777.6536254882815	-609.7216186523439	-364.4956665039063	685.8428955078126	-622.4811401367189	-375.4111328125001	547.2590332031251	-659.3083496093751	-336.9381713867188	550.5497436523439	-772.5324707031252	-319.3636474609376	340.4452209472657	-687.4805297851564	-398.8379821777345	268.6058654785157	-689.9180908203126	-352.3414916992188	262.8627624511719	-687.1317138671876	-328.7927551269532	219.0296936035157	-720.9429321289064	-387.9362182617189	119.6285018920899	-709.0972900390626	-355.3990173339844	142.8484802246094	-790.6865844726565	-453.2544860839845	103.4823837280274	-767.5367431640626	-229.157699584961	60.10427856445314	-775.6150512695315	-232.9576721191407	60.00449371337892	-729.9159545898439	-289.2861328125001	39.6972885131836	-680.8975830078126	nan	nan	nan	nan	nan	nan	
1627	8.130000000000001	-408.0264282226564	1804.797119140625	-654.1469116210939	-569.0214233398439	1762.490112304688	-765.6325073242189	-534.8818359375001	1768.31103515625	-628.1220703125001	-590.3504638671876	1590.47607421875	-701.1127929687501	-573.4047851562501	1282.083251953125	-723.4022216796876	nan	nan	nan	-530.7242431640626	1611.459228515625	-860.0340576171877	-366.1744079589844	1602.578979492188	-973.4802246093752	-346.3318786621094	1636.018310546875	-940.2032470703127	-299.1654357910157	1621.0810546875	-974.181091308594	-234.7480773925782	1638.705688476563	-971.1555175781252	-217.7616424560547	1568.03271484375	-941.066345214844	42.91408920288087	1703.511962890625	-908.2002563476565	35.09011459350587	1715.625244140625	-983.4848632812502	118.7548980712891	1749.574951171875	-905.6741333007815	-461.3385009765626	1604.410522460938	-541.4826049804689	-287.5804748535157	1559.8837890625	-453.4187316894532	-266.7849731445313	1597.156982421875	-480.4990234375001	-219.2290496826172	1565.529541015625	-460.822967529297	-159.5000457763672	1587.3046875	-474.7085876464845	-147.9128112792969	1522.658203125	-516.5752563476564	111.7448425292969	1673.038208007813	-579.2432250976564	121.0427856445313	1663.427001953125	-504.469207763672	194.508529663086	1715.897094726563	-582.3239746093751	-395.0418395996095	1140.197631835938	-857.707946777344	-387.3652343750001	1096.890014648438	-636.7952880859376	-577.5899047851564	1149.32861328125	-734.9039306640626	-578.9024658203126	1121.921508789063	-768.2248535156252	-575.2728881835939	1112.47216796875	-709.3811035156251	-292.1536865234376	923.0642089843752	-952.624206542969	-213.7994232177735	890.8389892578127	-943.755065917969	-183.5916900634766	921.3840942382815	-923.652038574219	-198.4226074218751	831.2618408203127	-943.5782470703127	-113.6434097290039	742.9570922851564	-946.810241699219	-89.05166625976564	719.0901489257814	-832.0466918945315	21.14095497131348	655.9153442382814	-923.7988891601565	-1.521437644958497	593.4539794921876	-981.1436157226565	33.55647659301759	609.9703369140626	-957.6936645507815	77.31005859375001	540.4818725585939	-926.570983886719	133.6328125	379.5529174804688	-984.2940063476565	144.4027557373047	371.5729675292969	-898.1467895507815	115.1566390991211	284.6357727050782	-959.7771606445315	297.9452819824219	422.5812988281251	-913.2371215820315	291.9114990234376	430.9504699707032	-953.481872558594	267.7483825683594	402.1394042968751	-1015.266357421875	-399.1489562988282	814.9356689453127	-602.0928955078126	-351.0996093750001	768.3250122070315	-603.8991699218751	-320.0637512207032	777.6126708984377	-609.9221801757814	-364.5462341308594	685.9044189453126	-622.5800781250001	-375.7266235351563	547.2854614257814	-659.4989624023439	-337.3656616210938	550.5736694335939	-772.765319824219	-319.5507507324219	340.5512695312501	-687.5407104492189	-398.957244873047	268.5927429199219	-690.0490722656251	-352.4693298339844	262.8806152343751	-687.2404174804689	-328.8637695312501	219.0142211914063	-721.0060424804689	-387.9132385253907	119.6323928833008	-709.1751098632814	-355.4214477539063	142.7829284667969	-790.7847290039065	-453.2148742675782	103.4628524780274	-767.5695190429689	-229.0905151367188	60.00048446655275	-775.6370849609377	-232.9337615966797	59.98693847656251	-729.9097900390626	-289.2667236328126	39.76465225219727	-680.9219970703126	nan	nan	nan	nan	nan	nan	
1628	8.135	-408.5234680175782	1805.11376953125	-654.2172241210939	-569.7351684570314	1762.4990234375	-765.5358276367189	-535.4923095703126	1768.425903320313	-628.1275634765626	-590.6412963867189	1590.4775390625	-701.0151367187501	-573.1593627929689	1281.972290039063	-723.2670288085939	nan	nan	nan	-531.1836547851564	1611.544067382813	-860.0430297851565	-366.5949707031251	1602.645874023438	-973.483337402344	-346.7307739257813	1636.247192382813	-940.2622070312502	-299.5888366699219	1621.306518554688	-974.2227172851565	-235.2544555664063	1639.026245117188	-971.2714843750002	-218.1383666992188	1568.201049804688	-941.211120605469	42.36290359497071	1703.98583984375	-908.332458496094	34.4742774963379	1716.1083984375	-983.6118164062502	118.2548980712891	1749.894409179688	-905.9373779296877	-461.641815185547	1604.336669921875	-541.4226684570314	-287.8418884277344	1560.108154296875	-453.3768920898439	-267.1945190429688	1597.312744140625	-480.5147094726564	-219.5503845214844	1565.895385742188	-460.6635742187501	-159.8267822265625	1587.669555664063	-474.7496032714845	-148.205307006836	1523.004638671875	-516.4429321289064	111.591552734375	1673.2890625	-579.4208984375001	120.7166595458985	1664.089721679688	-504.6630859375001	193.9012145996094	1716.56640625	-582.3266601562501	-394.721893310547	1140.267456054688	-857.7026367187502	-386.8497924804689	1096.815551757813	-636.8656005859376	-577.0449218750001	1149.40185546875	-734.7360839843751	-578.5427856445314	1122.061767578125	-768.1010742187502	-574.8416137695314	1112.625	-709.2949829101564	-292.2211608886719	922.9458007812502	-952.7004394531252	-213.9509582519532	890.5047607421877	-943.7067871093752	-183.5423126220703	921.0371093750002	-923.7254028320315	-198.7142639160157	830.8863525390627	-943.676940917969	-114.2021636962891	742.2442016601564	-946.9494628906252	-89.57715606689455	718.0496826171876	-832.0618286132815	20.43673515319825	654.8161621093751	-924.1066894531252	-2.223456382751465	592.9338378906251	-981.4792480468752	32.59761810302735	609.0937500000001	-958.161804199219	76.18676757812501	539.2770385742189	-927.086120605469	132.0706481933594	378.1773986816407	-984.736999511719	142.6015777587891	370.2839355468751	-898.5701904296877	113.4927444458008	283.1799316406251	-960.3598632812502	296.6039123535157	420.8506164550782	-913.5648193359377	290.7568054199219	429.5356750488282	-953.8502197265627	266.2164001464844	400.306854248047	-1015.8076171875	-399.0060424804689	815.0684814453127	-602.1137084960939	-350.9688720703126	768.363952636719	-604.0730590820314	-319.9548645019532	777.6511840820315	-610.0761108398439	-364.3771667480469	686.2241210937501	-622.5817260742189	-375.9853820800782	547.3013305664064	-659.6781005859376	-337.6483459472657	550.5818481445314	-772.8953247070315	-319.6236572265626	340.5252685546876	-687.6787719726564	-399.0545654296876	268.6163940429688	-690.1232299804689	-352.5676574707032	262.9006042480469	-687.2808837890626	-328.9210205078126	219.0473785400391	-721.0524291992189	-387.8916320800782	119.6434555053711	-709.2089843750001	-355.4234313964844	142.7579345703125	-790.8273925781252	-453.2542419433595	103.4931259155274	-767.5532836914064	-229.0579376220704	59.95337677001955	-775.6317138671877	-232.9602355957032	59.92541885375978	-730.0259399414064	-289.3001403808594	39.74067306518555	-680.9357910156251	nan	nan	nan	nan	nan	nan	
